<svg width="177" height="65" viewBox="0 0 177 65" fill="none" xmlns="http://www.w3.org/2000/svg">
<path d="M85.6071 39.4259L84.386 35.3414L78.1399 35.3092L76.8767 39.3809L72.9627 39.3607L79.0983 22.189L83.5396 22.2119L89.5211 39.4461L85.6071 39.4259ZM83.5345 32.2901C82.4051 28.5889 81.7675 26.4958 81.6216 26.0106C81.4834 25.5255 81.3839 25.1422 81.3228 24.8606C81.0598 25.8593 80.3088 28.3281 79.0697 32.2671L83.5345 32.2901ZM95.371 29.9488L96.5428 29.9549C97.6912 29.9608 98.5399 29.7738 99.0887 29.3938C99.6376 29.0138 99.9141 28.4136 99.9183 27.5933C99.9225 26.7808 99.6443 26.2013 99.0835 25.8546C98.5306 25.508 97.6683 25.3317 96.4964 25.3257L95.3948 25.32L95.371 29.9488ZM95.3557 32.9019L95.3218 39.476L91.689 39.4573L91.7774 22.3247L96.7696 22.3505C99.0977 22.3625 100.818 22.7971 101.931 23.6545C103.044 24.504 103.596 25.792 103.587 27.5185C103.582 28.5263 103.3 29.4233 102.741 30.2095C102.182 30.9879 101.394 31.5971 100.376 32.0372C102.934 35.902 104.601 38.3989 105.376 39.5279L101.345 39.5071L97.2893 32.9119L95.3557 32.9019ZM114.142 39.5731L110.509 39.5544L110.582 25.4452L105.93 25.4212L105.945 22.3978L118.883 22.4646L118.867 25.488L114.215 25.4639L114.142 39.5731Z" fill="#3CB3CB"/>
<g opacity="0.9">
<path d="M175.196 34.0222C160.935 16.4346 139.336 5.95593 117.16 2.74078C91.3219 -1.00411 64.3593 2.7348 39.9957 11.8871C26.6816 16.8897 13.5716 22.9973 2.17603 31.6016C1.40376 32.1822 1.03987 33.1294 1.55498 34.0344C2.01279 34.8262 3.19642 35.1984 3.9878 34.6555C5.86265 33.3791 7.74696 32.1027 9.62181 30.8264C9.02623 30.8294 8.43064 30.8324 7.83506 30.8354C20.1595 37.5891 32.5587 44.1723 45.426 49.836C52.0017 52.7333 58.623 55.2901 65.5438 57.2497C72.5687 59.2372 79.6961 60.9122 86.9428 61.8869C100.641 63.7365 115.085 63.3322 128.385 59.3318C136.494 56.8893 143.591 52.6368 150.639 48.0348C154.936 45.224 159.156 42.2719 163.139 39.0373C165.926 36.7731 169.212 34.1849 170.85 30.9055C169.924 31.0332 168.998 31.1513 168.072 31.2789C169.622 33.0389 171.172 34.7895 172.722 36.5495C174.206 38.2531 176.698 35.7257 175.196 34.0222C173.646 32.2622 172.096 30.5116 170.546 28.7516C169.814 27.9234 168.255 28.1487 167.768 29.125C167.132 30.395 166.587 30.965 165.59 32.0289C164.339 33.3494 162.984 34.5569 161.591 35.7268C158.296 38.4947 154.782 40.9895 151.221 43.3899C147.65 45.7999 143.994 48.1064 140.261 50.2619C138.903 51.044 137.527 51.8168 136.131 52.5424C135.585 52.8193 135.038 53.0963 134.481 53.3543C134.368 53.4116 133.727 53.6891 134.236 53.469C133.321 53.8613 132.387 54.2158 131.453 54.5609C118.723 59.2486 104.755 60.1326 91.3329 58.8583C84.3714 58.194 77.5005 56.7541 70.7509 54.9921C63.9634 53.2209 57.3444 51.1179 50.8924 48.3713C36.7091 42.336 23.0968 35.1635 9.58735 27.7635C9.05645 27.4731 8.31877 27.4201 7.80059 27.7725C5.92574 29.0489 4.04143 30.3253 2.16658 31.6016C2.76735 32.6196 3.36812 33.6376 3.96889 34.6556C13.9329 27.1269 25.1833 21.577 36.7409 16.9426C48.506 12.222 60.59 8.8612 73.0967 6.84071C97.0051 2.9755 122.678 4.14029 144.798 14.7676C155.573 19.9409 165.159 27.2474 172.694 36.5497C173.303 37.3029 174.569 37.1546 175.199 36.5369C175.952 35.7957 175.795 34.7566 175.196 34.0222Z" fill="#070305"/>
<path d="M57.4114 8.46134C54.2036 19.0566 55.1322 30.6424 60.1835 40.5151C65.2062 50.3311 74.2055 57.6217 84.7157 60.8205C94.9701 63.9354 106.594 63.139 115.907 57.6368C124.117 52.7925 129.738 44.5484 132.32 35.469C134.967 26.1528 133.923 16.0991 129.776 7.38473C128.801 5.32872 125.747 7.14048 126.722 9.18704C130.048 16.185 131.179 24.8391 129.375 32.6666C127.617 40.2765 123.561 47.52 117.355 52.3825C101.102 65.1144 75.8943 58.7854 65.1355 42.012C58.9319 32.3438 57.5189 20.3161 60.8289 9.37047C61.4986 7.20212 58.0716 6.28358 57.4114 8.46134Z" fill="#070305"/>
</g>
</svg>
