<svg width="39" height="26" viewBox="0 0 39 26" fill="none" xmlns="http://www.w3.org/2000/svg">
<path d="M19.0996 16.6138C22.2491 13.858 22.5217 12.3438 25.55 10.7993C27.3065 9.89081 28.6995 9.67882 29.4263 9.58797C30.3046 9.49712 32.0913 9.40627 34.1203 10.1936C34.5746 10.3753 37.4818 11.5564 38.6023 14.7968C39.7228 18.0068 38.148 20.7627 37.8755 21.2472C36.9367 22.9128 35.6345 23.8819 34.9683 24.3361C34.726 24.4876 33.2724 25.4566 31.3039 25.7898C27.0036 26.5166 23.521 23.6396 22.9759 23.1854C23.2787 22.6402 23.6119 22.0951 23.9147 21.5803C24.3992 21.8529 24.9746 22.1557 25.6712 22.4283C26.6705 22.8219 27.5487 23.0037 28.3058 23.0945C28.8812 23.1854 30.3954 23.3065 31.8793 22.4283C32.6061 22.0043 33.0604 21.4895 33.2118 21.3078C34.9683 19.2182 34.2414 16.6138 34.1506 16.4018C34.1203 16.2807 33.3329 13.8883 30.9102 12.9797C28.851 12.1924 27.0036 13.01 26.3374 13.3129C25.1563 13.8277 24.3084 14.6756 24.157 14.7968C23.8239 15.1299 23.6119 15.4327 23.4907 15.5841C22.6125 16.7349 21.6737 17.8251 20.8561 19.0062C20.1292 20.0056 17.858 22.7311 14.6782 24.215C13.5577 24.7298 9.89335 26.3954 5.92618 24.9115C5.13881 24.6087 1.8076 23.3671 0.505403 19.8844C0.353984 19.4605 -0.82708 16.1595 1.05051 13.1312C2.29214 11.1324 4.16973 10.3451 4.86626 10.0725C7.95519 8.83088 10.7716 9.73939 11.5287 10.0119C14.7085 11.0416 16.3135 13.3431 16.798 14.1002C16.1924 14.4636 15.617 14.8271 15.0113 15.2207C14.4056 14.6453 12.0738 12.5558 9.71165 12.041C9.01512 11.8895 8.40945 11.8895 8.37917 11.8895C7.86434 11.8895 6.62271 11.9198 5.41136 12.7072C5.01767 12.9797 4.13945 13.5249 3.68519 14.6453C3.20065 15.7961 3.44292 16.8561 3.50349 17.1589C3.95774 19.0668 5.68392 20.0056 6.19874 20.2781C8.19746 21.3683 10.2265 21.0352 11.4681 20.8232C15.4656 20.1267 18.1911 17.4012 19.0996 16.6138Z" fill="#3A3837"/>
<path d="M21.3332 3.50095C22.3023 3.28897 22.8777 2.13819 22.484 1.29024C22.0903 0.442299 20.9092 0.230313 20.1522 0.684569C19.6979 0.926838 19.3042 1.47194 19.3345 2.07762C19.4253 2.95585 20.3944 3.71294 21.3332 3.50095Z" fill="#3A3837"/>
<path d="M9.82541 3.5918C10.3705 4.31861 11.279 5.31797 12.5207 6.25677C13.4292 6.95329 15.9124 8.74003 19.6373 9.04287C23.3017 9.31542 25.9969 7.95265 26.6026 7.61953C28.8436 6.40818 30.1761 4.80315 30.8423 3.89464C30.5697 3.56152 30.2669 3.2284 29.9944 2.89527C29.1767 3.74322 27.4202 5.31797 24.6947 6.1962C24.089 6.3779 21.9995 6.98357 19.3042 6.65045C15.0342 6.13563 12.2178 3.5918 11.2185 2.59244C10.7945 2.92556 10.3099 3.25868 9.82541 3.5918Z" fill="#3A3837"/>
</svg>
