<svg width="39" height="26" viewBox="0 0 39 26" fill="none" xmlns="http://www.w3.org/2000/svg">
<path d="M19.0996 16.1627C22.2491 13.4069 22.5217 11.8927 25.55 10.3483C27.3065 9.43976 28.6995 9.22777 29.4263 9.13692C30.3046 9.04607 32.0913 8.95522 34.1203 9.7426C34.5746 9.9243 37.4818 11.1054 38.6023 14.3457C39.7228 17.5558 38.148 20.3116 37.8755 20.7961C36.9367 22.4618 35.6345 23.4308 34.9683 23.8851C34.726 24.0365 33.2724 25.0056 31.3039 25.3387C27.0036 26.0655 23.521 23.1886 22.9759 22.7343C23.2787 22.1892 23.6119 21.6441 23.9147 21.1293C24.3992 21.4018 24.9746 21.7047 25.6712 21.9772C26.6705 22.3709 27.5487 22.5526 28.3058 22.6435C28.8812 22.7343 30.3954 22.8554 31.8793 21.9772C32.6061 21.5532 33.0604 21.0384 33.2118 20.8567C34.9683 18.7671 34.2414 16.1627 34.1506 15.9508C34.1203 15.8296 33.3329 13.4372 30.9102 12.5287C28.851 11.7413 27.0036 12.559 26.3374 12.8618C25.1563 13.3766 24.3084 14.2246 24.157 14.3457C23.8239 14.6788 23.6119 14.9817 23.4907 15.1331C22.6125 16.2839 21.6737 17.3741 20.8561 18.5552C20.1292 19.5545 17.858 22.28 14.6782 23.764C13.5577 24.2788 9.89335 25.9444 5.92618 24.4605C5.13881 24.1576 1.8076 22.916 0.505403 19.4334C0.353984 19.0094 -0.82708 15.7085 1.05051 12.6801C2.29214 10.6814 4.16973 9.89401 4.86626 9.62146C7.95519 8.37983 10.7716 9.28834 11.5287 9.56089C14.7085 10.5905 16.3135 12.8921 16.798 13.6492C16.1924 14.0126 15.617 14.376 15.0113 14.7697C14.4056 14.1943 12.0738 12.1047 9.71165 11.5899C9.01512 11.4385 8.40945 11.4385 8.37917 11.4385C7.86434 11.4385 6.62271 11.4688 5.41136 12.2561C5.01767 12.5287 4.13945 13.0738 3.68519 14.1943C3.20065 15.3451 3.44292 16.405 3.50349 16.7078C3.95774 18.6157 5.68392 19.5545 6.19874 19.8271C8.19746 20.9173 10.2265 20.5842 11.4681 20.3722C15.4656 19.6756 18.1911 16.9501 19.0996 16.1627Z" fill="#3A3837"/>
<path d="M21.3332 3.04989C22.3023 2.8379 22.8777 1.68712 22.484 0.839178C22.0903 -0.00876582 20.9092 -0.220752 20.1521 0.233504C19.6979 0.475773 19.3042 1.02088 19.3345 1.62655C19.4253 2.50478 20.3944 3.26187 21.3332 3.04989Z" fill="#3A3837"/>
<path d="M9.82544 3.14072C10.3705 3.86753 11.2791 4.86689 12.5207 5.80569C13.4292 6.50221 15.9125 8.28895 19.6374 8.59179C23.3017 8.86434 25.9969 7.50157 26.6026 7.16845C28.8436 5.9571 30.1761 4.35207 30.8423 3.44356C30.5698 3.11044 30.2669 2.77732 29.9944 2.44419C29.1767 3.29214 27.4203 4.86689 24.6947 5.74512C24.0891 5.92682 21.9995 6.53249 19.3042 6.19937C15.0342 5.68455 12.2179 3.14072 11.2185 2.14136C10.7945 2.47448 10.31 2.8076 9.82544 3.14072Z" fill="#3A3837"/>
</svg>
